<svg xmlns="http://www.w3.org/2000/svg" version="1.1" xmlns:xlink="http://www.w3.org/1999/xlink" xmlns:svgjs="http://svgjs.dev/svgjs" width="1000" height="1125" viewBox="0 0 1000 1125"><g transform="matrix(1,0,0,1,0.00022031250000509317,0)"><svg viewBox="0 0 320 360" data-background-color="#ffffff" preserveAspectRatio="xMidYMid meet" height="1125" width="1000" xmlns="http://www.w3.org/2000/svg" xmlns:xlink="http://www.w3.org/1999/xlink"><g id="tight-bounds" transform="matrix(1,0,0,1,-0.000023499999997511622,0)"><svg viewBox="0 0 320 360" height="360" width="320"><rect width="320.000094" height="360" fill="url(#3730720e-9e33-4d1f-a3b5-8f83b8c4c5c2)" mask="url(#404cfff6-7c90-4e3c-b27f-f4d15e39616c)" data-fill-palette-color="tertiary"></rect><g><svg></svg></g><g><svg viewBox="0 0 320 360" height="360" width="320"><g><path transform="translate(-74.99272,-51.79039) scale(4.65793,4.65793)" d="M20.6 59.9l0.8 1-0.4-1.3c-0.1-0.6-0.8 0.1-0.4 0.3M21.5 59.3c0.3 0.5 0.6 1 0.6 1.5 0 0.7 0.6 1 1.1 1.2-0.7-0.8-1.1-3-1.7-2.7M59.9 16.9c1.7 0 3.3-0.2 5.1 0.2 4.4 1.1 8.1 3.3 10.6 6.4l7 11.2c0.3 2.8 0.9 5.9 0.8 9.3 0.7 0 0.6-1 1.4-1.2-0.8 2-1.2 4.5-1.4 7.4-0.5-1.6 0-4 0.1-5.3-0.7 1.1-1.1 0.3-1.1-0.2 0.1-0.8-0.3-0.7-0.6-1-1.1-1-1.8-2.1-2.6-3.8 0.5-1.3 0.6-3.2-1-4.2-0.5-0.3-1.1-0.8-1.4-1.6-0.4-1.1-1.1-2.4-0.9-4.1 0.1-0.5-1.5 1.1-2.4 0.4-3.9-2.7-7.8-5.8-12.5-8.4-2.5 0-4.3-0.9-5.2-2-0.8-1-0.2-2.3 1-2.4 0.7 0 1.5-0.2 2.1 0.2 0.1-0.4 0.5-0.9 1-0.9M50 14.6l0.2 0.1c1 0.2 1.5 1.6 2.6 1.1 0 0.7 0.1 1.4-0.1 1.9-0.3 0.8-1.2 0.8-1.9 0.8-6.7-0.4-10.6 2.4-14.7 4.8-1.1 0.7-2.3 1.2-3.2 2.1-4.3 4-9 7.7-10.1 15.1l-0.9 8.2c-0.1 0.9-1.1 1.8-0.9 2.9l0.7 4.9c-0.7-0.7-1.1 0.2-0.9 0.6 0.1 0.3 0.5 1.3 1.1 0.4 0.8 1.5 1.6 4.4 2.7 5.7 3.4 4 7.8 7.6 11.4 11.2 0.9-0.2 1.6-0.2 1.8-0.8 0.3 0.6-0.3 1.2-0.8 1.3 1.6 1 3.4 1.9 5.8 2.1 3.1 0.2 6 0.7 8.7 1.4 1.4-0.4 2.8-0.6 4.3-0.7 0.5 0 0.8-0.8 1.4-1l0.1-1c0.6 0.9 0.5-0.3 0.1-0.9 0.7 0.6 0.9 1.1 1.2 1.5 0-0.3 0.8-1.4 0.8-0.1l0.2-1.3c0.3-0.2 0.4 1.1 0.7 0.2 0.3-0.9 0.9-0.2 1.5-0.5-0.2 0.4-0.1 1.2 0.6 0.7l0.8-0.7c0.5 1.2 1.3 0.7 1.7 0.5 4.4-2.8 8.8-6.1 13-9.4l-0.1 1.3 0.5-1.6c0.5 0.5 0.9 0.1 1.1-0.2 0.6-1 1.4-2 2.7-2.9-1.6 4.3-3.5 7.7-5.9 10.5l-1 1.2c0 0.7-0.2 1.6-1 1.7-0.4 0.1-1.2-0.2-1.8 0.4-0.3 0.4 0.7 1.2-0.1 0.6-0.7-0.5-1.4 0-2.2 0.2-0.6 0.2 0.4 0.8 0.6 1.2 0.2 0.4 0.4 0.8 0.3 1.3l-1.1-1.2c-1.3 0.7-2.1 2-3.2 3-0.5 0.4-0.3 1.1-0.3 1.7-0.7 0-1.5-0.2-1.9 0.2-0.3 0.4-0.2 1-0.2 1.6-1-0.1-1.1-1.6-2-1.3-0.9 0.2-1.9 0.3-2.7 0.8 0.6 1.2-1 0.5-0.8 0.7-1.5-0.9-2.8-1.6-4.4-1-3.4-1.1-7.6-0.6-10.7-0.2 0-0.5 0.1-1-0.1-1.1-0.2 0.5-0.8 0.3-0.7 0.3-1.9-1.3-3.8-2.1-5.8-3.2-1.8 0.2-3.5-0.7-4-1.2-1.4-1.3-3-0.6-4.3-0.9-2.8-0.7-3.8-3.6-4.1-5.6-0.2-1-1-1.4-1.3-1.3-1.3-4.2-3.3-8-4.9-11.9-0.4-1-0.3-2-0.3-3.1 0.5 0.2 1 0.1 0.9-0.6-0.5-3.3-1.7-5.8-3-8.2 0.7-3.4 0.8-7.4 2.4-10.4 1.4-2.7 4-4.1 5.8-6.4 0.6-0.8 0.6-1.9 1.2-2.6 2-2 4-4.1 6.2-5.9 1-0.8 2.2 0 3.7-0.3 0.5-1.8 2.5-3.4 4.4-2.9 0.8 0.2 2.4-1.9 2.9-2.1 0.8-0.3 0.4 0.8 0.4 1.5 1.9-1.5 4.5-2.3 6.9-3.2" fill="url(#3730720e-9e33-4d1f-a3b5-8f83b8c4c5c2)" fill-rule="nonzero" stroke="none" stroke-width="1" stroke-linecap="butt" stroke-linejoin="miter" stroke-miterlimit="10" stroke-dasharray="" stroke-dashoffset="0" font-family="none" font-weight="none" font-size="none" text-anchor="none" style="mix-blend-mode: normal" data-fill-palette-color="tertiary"></path></g><g transform="matrix(1,0,0,1,82.84278712552785,90)"><svg viewBox="0 0 154.3144257489443 180" height="180" width="154.3144257489443"><g><svg viewBox="0 0 154.3144257489443 180" height="180" width="154.3144257489443"><g><svg viewBox="0 0 192 223.95832296473702" height="180" width="154.3144257489443"><g transform="matrix(1,0,0,1,0,114.50756235625023)"><svg viewBox="0 0 192 109.45076060848677" height="109.45076060848677" width="192"><g id="textblocktransform"><svg viewBox="0 0 192 109.45076060848677" height="109.45076060848677" width="192" id="textblock"><g><svg viewBox="0 0 192 109.45076060848677" height="109.45076060848677" width="192"><g transform="matrix(1,0,0,1,0,0)"><svg width="192" viewBox="2.4 -35.15 62.449999999999996 35.6" height="109.45076060848677" data-palette-color="#7fdbff"><path d="M13.8-31.75L13.8-31.75Q6.3-31.75 6.3-26.1L6.3-26.1Q6.3-22.95 8.03-21.78 9.75-20.6 15.03-19.43 20.3-18.25 22.5-16.38 24.7-14.5 24.7-10.2L24.7-10.2Q24.7 0.45 13.65 0.45L13.65 0.45Q10 0.45 4.5-0.4L4.5-0.4 2.7-0.65 3.1-3.85Q9.9-2.95 13.45-2.95L13.45-2.95Q20.85-2.95 20.85-9.9L20.85-9.9Q20.85-12.7 19.23-13.93 17.6-15.15 13.15-16L13.15-16Q7.3-17.25 4.85-19.23 2.4-21.2 2.4-25.85L2.4-25.85Q2.4-35.15 13.55-35.15L13.55-35.15Q17.2-35.15 22.3-34.4L22.3-34.4 24-34.15 23.65-30.9Q16.7-31.75 13.8-31.75ZM35.2 0L31.35 0 31.35-34.6 38.3-34.6 48.1-5.35 57.9-34.6 64.85-34.6 64.85 0 61 0 61-30.5 60.3-30.5 50.25-1.25 45.95-1.25 35.9-30.5 35.2-30.5 35.2 0Z" opacity="1" transform="matrix(1,0,0,1,0,0)" fill="#7fdbff" class="wordmark-text-0" data-fill-palette-color="primary" id="text-0"></path></svg></g></svg></g></svg></g></svg></g><g transform="matrix(1,0,0,1,36.672,0)"><svg viewBox="0 0 118.656 98.5360695652174" height="98.5360695652174" width="118.656"><g><svg xmlns="http://www.w3.org/2000/svg" xmlns:xlink="http://www.w3.org/1999/xlink" version="1.1" x="0" y="0" viewBox="4.4 12 92 76.4" enable-background="new 0 0 100 100" xml:space="preserve" height="98.5360695652174" width="118.656" class="icon-icon-0" data-fill-palette-color="accent" id="icon-0"></svg></g></svg></g><g></g></svg></g></svg></g></svg></g></svg></g><defs></defs><mask id="b432baf8-7546-40d9-a7ea-9a68ab1b718c"><g id="SvgjsG1100"><svg viewBox="0 0 320 360" height="360" width="320"><g><svg></svg></g><g><svg viewBox="0 0 320 360" height="360" width="320"><g></g><g transform="matrix(1,0,0,1,82.84278712552785,90)"><svg viewBox="0 0 154.3144257489443 180" height="180" width="154.3144257489443"><g><svg viewBox="0 0 154.3144257489443 180" height="180" width="154.3144257489443"><g><svg viewBox="0 0 192 223.95832296473702" height="180" width="154.3144257489443"><g transform="matrix(1,0,0,1,0,114.50756235625023)"><svg viewBox="0 0 192 109.45076060848677" height="109.45076060848677" width="192"><g id="SvgjsG1099"><svg viewBox="0 0 192 109.45076060848677" height="109.45076060848677" width="192" id="SvgjsSvg1098"><g><svg viewBox="0 0 192 109.45076060848677" height="109.45076060848677" width="192"><g transform="matrix(1,0,0,1,0,0)"><svg width="192" viewBox="2.4 -35.15 62.449999999999996 35.6" height="109.45076060848677" data-palette-color="#7fdbff"></svg></g></svg></g></svg></g></svg></g><g transform="matrix(1,0,0,1,36.672,0)"><svg viewBox="0 0 118.656 98.5360695652174" height="98.5360695652174" width="118.656"><g><svg xmlns="http://www.w3.org/2000/svg" xmlns:xlink="http://www.w3.org/1999/xlink" version="1.1" x="0" y="0" viewBox="4.4 12 92 76.4" enable-background="new 0 0 100 100" xml:space="preserve" height="98.5360695652174" width="118.656" class="icon-icon-0" data-fill-palette-color="accent" id="SvgjsSvg1096"><polygon points="4.4,78.6 8.9,85.8 41.5,29.3 64.9,65 74.6,65 41.4,13.4 " fill="white"></polygon><polygon points="37.4,69 33.3,76.3 96.3,76.2 53.7,12 44.7,12.1 81.5,69 81.2,69 81.4,69 " fill="white"></polygon><polygon points="27.3,81 27.2,81 34.7,67.1 35.2,66 35.2,66 46.9,44.6 41.7,36.6 12.1,88 91.6,88.4 96.4,81 27.2,81 " fill="white"></polygon></svg></g></svg></g><g></g></svg></g></svg></g></svg></g></svg></g><defs><mask></mask></defs></svg></g></mask><linearGradient x1="0.054" x2="0.941" y1="0.5" y2="0.5" id="b037eb45-9425-4c80-b318-afd534c7f467"><stop stop-color="#9c7945" offset="0"></stop><stop stop-color="#faf3aa" offset="0.498"></stop><stop stop-color="#9c7945" offset="1"></stop></linearGradient><rect width="320.000047" height="360" fill="url(#b037eb45-9425-4c80-b318-afd534c7f467)" mask="url(#b432baf8-7546-40d9-a7ea-9a68ab1b718c)" data-fill-palette-color="accent"></rect><mask id="404cfff6-7c90-4e3c-b27f-f4d15e39616c"><g id="SvgjsG1109"><svg viewBox="0 0 320 360" height="360" width="320"><g><svg></svg></g><g><svg viewBox="0 0 320 360" height="360" width="320"><g><path transform="translate(-74.99272,-51.79039) scale(4.65793,4.65793)" d="M20.6 59.9l0.8 1-0.4-1.3c-0.1-0.6-0.8 0.1-0.4 0.3M21.5 59.3c0.3 0.5 0.6 1 0.6 1.5 0 0.7 0.6 1 1.1 1.2-0.7-0.8-1.1-3-1.7-2.7M59.9 16.9c1.7 0 3.3-0.2 5.1 0.2 4.4 1.1 8.1 3.3 10.6 6.4l7 11.2c0.3 2.8 0.9 5.9 0.8 9.3 0.7 0 0.6-1 1.4-1.2-0.8 2-1.2 4.5-1.4 7.4-0.5-1.6 0-4 0.1-5.3-0.7 1.1-1.1 0.3-1.1-0.2 0.1-0.8-0.3-0.7-0.6-1-1.1-1-1.8-2.1-2.6-3.8 0.5-1.3 0.6-3.2-1-4.2-0.5-0.3-1.1-0.8-1.4-1.6-0.4-1.1-1.1-2.4-0.9-4.1 0.1-0.5-1.5 1.1-2.4 0.4-3.9-2.7-7.8-5.8-12.5-8.4-2.5 0-4.3-0.9-5.2-2-0.8-1-0.2-2.3 1-2.4 0.7 0 1.5-0.2 2.1 0.2 0.1-0.4 0.5-0.9 1-0.9M50 14.6l0.2 0.1c1 0.2 1.5 1.6 2.6 1.1 0 0.7 0.1 1.4-0.1 1.9-0.3 0.8-1.2 0.8-1.9 0.8-6.7-0.4-10.6 2.4-14.7 4.8-1.1 0.7-2.3 1.2-3.2 2.1-4.3 4-9 7.7-10.1 15.1l-0.9 8.2c-0.1 0.9-1.1 1.8-0.9 2.9l0.7 4.9c-0.7-0.7-1.1 0.2-0.9 0.6 0.1 0.3 0.5 1.3 1.1 0.4 0.8 1.5 1.6 4.4 2.7 5.7 3.4 4 7.8 7.6 11.4 11.2 0.9-0.2 1.6-0.2 1.8-0.8 0.3 0.6-0.3 1.2-0.8 1.3 1.6 1 3.4 1.9 5.8 2.1 3.1 0.2 6 0.7 8.7 1.4 1.4-0.4 2.8-0.6 4.3-0.7 0.5 0 0.8-0.8 1.4-1l0.1-1c0.6 0.9 0.5-0.3 0.1-0.9 0.7 0.6 0.9 1.1 1.2 1.5 0-0.3 0.8-1.4 0.8-0.1l0.2-1.3c0.3-0.2 0.4 1.1 0.7 0.2 0.3-0.9 0.9-0.2 1.5-0.5-0.2 0.4-0.1 1.2 0.6 0.7l0.8-0.7c0.5 1.2 1.3 0.7 1.7 0.5 4.4-2.8 8.8-6.1 13-9.4l-0.1 1.3 0.5-1.6c0.5 0.5 0.9 0.1 1.1-0.2 0.6-1 1.4-2 2.7-2.9-1.6 4.3-3.5 7.7-5.9 10.5l-1 1.2c0 0.7-0.2 1.6-1 1.7-0.4 0.1-1.2-0.2-1.8 0.4-0.3 0.4 0.7 1.2-0.1 0.6-0.7-0.5-1.4 0-2.2 0.2-0.6 0.2 0.4 0.8 0.6 1.2 0.2 0.4 0.4 0.8 0.3 1.3l-1.1-1.2c-1.3 0.7-2.1 2-3.2 3-0.5 0.4-0.3 1.1-0.3 1.7-0.7 0-1.5-0.2-1.9 0.2-0.3 0.4-0.2 1-0.2 1.6-1-0.1-1.1-1.6-2-1.3-0.9 0.2-1.9 0.3-2.7 0.8 0.6 1.2-1 0.5-0.8 0.7-1.5-0.9-2.8-1.6-4.4-1-3.4-1.1-7.6-0.6-10.7-0.2 0-0.5 0.1-1-0.1-1.1-0.2 0.5-0.8 0.3-0.7 0.3-1.9-1.3-3.8-2.1-5.8-3.2-1.8 0.2-3.5-0.7-4-1.2-1.4-1.3-3-0.6-4.3-0.9-2.8-0.7-3.8-3.6-4.1-5.6-0.2-1-1-1.4-1.3-1.3-1.3-4.2-3.3-8-4.9-11.9-0.4-1-0.3-2-0.3-3.1 0.5 0.2 1 0.1 0.9-0.6-0.5-3.3-1.7-5.8-3-8.2 0.7-3.4 0.8-7.4 2.4-10.4 1.4-2.7 4-4.1 5.8-6.4 0.6-0.8 0.6-1.9 1.2-2.6 2-2 4-4.1 6.2-5.9 1-0.8 2.2 0 3.7-0.3 0.5-1.8 2.5-3.4 4.4-2.9 0.8 0.2 2.4-1.9 2.9-2.1 0.8-0.3 0.4 0.8 0.4 1.5 1.9-1.5 4.5-2.3 6.9-3.2" fill="white" fill-rule="nonzero" stroke="none" stroke-width="1" stroke-linecap="butt" stroke-linejoin="miter" stroke-miterlimit="10" stroke-dasharray="" stroke-dashoffset="0" font-family="none" font-weight="none" font-size="none" text-anchor="none" style="mix-blend-mode: normal"></path></g><g transform="matrix(1,0,0,1,82.84278712552785,90)"><svg viewBox="0 0 154.3144257489443 180" height="180" width="154.3144257489443"><g><svg viewBox="0 0 154.3144257489443 180" height="180" width="154.3144257489443"><g><svg viewBox="0 0 192 223.95832296473702" height="180" width="154.3144257489443"><g transform="matrix(1,0,0,1,0,114.50756235625023)"><svg viewBox="0 0 192 109.45076060848677" height="109.45076060848677" width="192"><g id="SvgjsG1108"><svg viewBox="0 0 192 109.45076060848677" height="109.45076060848677" width="192" id="SvgjsSvg1107"><g><svg viewBox="0 0 192 109.45076060848677" height="109.45076060848677" width="192"><g transform="matrix(1,0,0,1,0,0)"><svg width="192" viewBox="2.4 -35.15 62.449999999999996 35.6" height="109.45076060848677" data-palette-color="#7fdbff"></svg></g></svg></g></svg></g></svg></g><g transform="matrix(1,0,0,1,36.672,0)"><svg viewBox="0 0 118.656 98.5360695652174" height="98.5360695652174" width="118.656"><g><svg xmlns="http://www.w3.org/2000/svg" xmlns:xlink="http://www.w3.org/1999/xlink" version="1.1" x="0" y="0" viewBox="4.4 12 92 76.4" enable-background="new 0 0 100 100" xml:space="preserve" height="98.5360695652174" width="118.656" class="icon-icon-0" data-fill-palette-color="accent" id="SvgjsSvg1105"></svg></g></svg></g><g></g></svg></g></svg></g></svg></g></svg></g><defs><mask></mask></defs><mask><g id="SvgjsG1104"><svg viewBox="0 0 320 360" height="360" width="320"><g><svg></svg></g><g><svg viewBox="0 0 320 360" height="360" width="320"><g></g><g transform="matrix(1,0,0,1,82.84278712552785,90)"><svg viewBox="0 0 154.3144257489443 180" height="180" width="154.3144257489443"><g><svg viewBox="0 0 154.3144257489443 180" height="180" width="154.3144257489443"><g><svg viewBox="0 0 192 223.95832296473702" height="180" width="154.3144257489443"><g transform="matrix(1,0,0,1,0,114.50756235625023)"><svg viewBox="0 0 192 109.45076060848677" height="109.45076060848677" width="192"><g id="SvgjsG1103"><svg viewBox="0 0 192 109.45076060848677" height="109.45076060848677" width="192" id="SvgjsSvg1102"><g><svg viewBox="0 0 192 109.45076060848677" height="109.45076060848677" width="192"><g transform="matrix(1,0,0,1,0,0)"><svg width="192" viewBox="2.4 -35.15 62.449999999999996 35.6" height="109.45076060848677" data-palette-color="#7fdbff"></svg></g></svg></g></svg></g></svg></g><g transform="matrix(1,0,0,1,36.672,0)"><svg viewBox="0 0 118.656 98.5360695652174" height="98.5360695652174" width="118.656"><g><svg xmlns="http://www.w3.org/2000/svg" xmlns:xlink="http://www.w3.org/1999/xlink" version="1.1" x="0" y="0" viewBox="4.4 12 92 76.4" enable-background="new 0 0 100 100" xml:space="preserve" height="98.5360695652174" width="118.656" class="icon-icon-0" data-fill-palette-color="accent" id="SvgjsSvg1101"></svg></g></svg></g><g></g></svg></g></svg></g></svg></g></svg></g><defs><mask></mask></defs></svg></g></mask></svg></g></mask><linearGradient x1="0" x2="1" y1="0.578" y2="0.595" id="3730720e-9e33-4d1f-a3b5-8f83b8c4c5c2"><stop stop-color="#6ee2f5" offset="0"></stop><stop stop-color="#6454f0" offset="1"></stop></linearGradient></svg><rect width="320" height="360" fill="none" stroke="none" visibility="hidden"></rect></g></svg></g></svg>